<svg id="Layer_1" data-name="Layer 1" xmlns="http://www.w3.org/2000/svg" viewBox="0 0 87 108.34"><defs><style>.cls-1{fill:#1d2b41;}.cls-2{fill:#8092ae;}.cls-3{fill:#fff;}</style></defs><title>pigeon</title><path class="cls-1" d="M242,216l-42,51a70.16,70.16,0,0,0,19,30c15.49,14.2,39.5,22.49,45,16,6.87-8.1-22-31-16-58,3.17-14.16,14.68-23.58,23-29l16-4-12-7a20.13,20.13,0,0,0-33,1Z" transform="translate(-200 -206.9)"/><path class="cls-2" d="M257,251c4.81-1.7,15.72,11.25,19,25,3.74,15.69-3.23,29.21-6,34l-16-40C253,255.74,254.86,251.75,257,251Z" transform="translate(-200 -206.9)"/><ellipse class="cls-3" cx="57.5" cy="9.1" rx="4.5" ry="3"/></svg>